<?xml version="1.0" ?><!DOCTYPE svg  PUBLIC '-//W3C//DTD SVG 1.1//EN'  'http://www.w3.org/Graphics/SVG/1.1/DTD/svg11.dtd'><svg enable-background="new 0 0 64 64" id="Layer_1" version="1.1" viewBox="0 0 64 64" xml:space="preserve" xmlns="http://www.w3.org/2000/svg" xmlns:xlink="http://www.w3.org/1999/xlink"><path d="M40.835,47.818c-0.582,0-1.97-0.008-3.751-0.018c-4.401-0.025-11.215-0.065-14.206-0.03c0,0,0,0-0.001,0  c-3.324,0-7.83-2.253-7.842-6.482c-0.006-2.208,0.012-4.117,0.029-5.955c0.027-2.926,0.053-5.69-0.024-9.208  c-0.129-5.882,2.456-9.413,7.092-9.688c2.534-0.151,7.256-0.256,11.483-0.256c4.166,0,9.432,0.094,10.864,0.544  c2.573,0.808,4.037,3.591,4.308,5.835c0.31,2.567,0.142,11.368,0.052,16.097c-0.025,1.33-0.045,2.328-0.045,2.753  c0.001,1.803-0.802,3.443-2.259,4.617C45.081,47.199,43.109,47.818,40.835,47.818z M26.091,45.758c3.355,0,7.813,0.025,11.004,0.043  c1.775,0.01,3.159,0.018,3.739,0.018c1.787,0,3.366-0.479,4.445-1.348c0.99-0.798,1.514-1.856,1.514-3.059  c0-0.432,0.02-1.443,0.045-2.792c0.083-4.346,0.256-13.39-0.038-15.819c-0.202-1.678-1.271-3.648-2.921-4.166  c-0.696-0.219-3.758-0.452-10.265-0.452c-4.192,0-8.866,0.104-11.365,0.252c-4.439,0.264-5.284,4.305-5.21,7.648  c0.078,3.549,0.052,6.328,0.024,9.271c-0.017,1.831-0.035,3.731-0.029,5.93c0.008,2.89,3.416,4.489,5.768,4.489  C23.687,45.762,24.808,45.758,26.091,45.758z"/><path d="M29.679,36.482c-1.645,0-2.831-1.45-3.917-2.779c-0.208-0.255-0.425-0.52-0.654-0.79c-0.357-0.421-0.305-1.052,0.116-1.409  c0.422-0.357,1.053-0.305,1.409,0.116c0.237,0.279,0.461,0.554,0.677,0.817c1.785,2.183,2.217,2.601,3.789,1.353  c2.129-1.691,5.28-4.912,6.315-5.971c0.386-0.394,1.02-0.402,1.414-0.016s0.402,1.019,0.016,1.414  c-1.834,1.876-4.504,4.553-6.501,6.139C31.328,36.162,30.453,36.482,29.679,36.482z"/></svg>